HIERARCHY
ROOT pelvis
{
  OFFSET 0 100 0
  CHANNELS 6 Xposition Yposition Zposition Zrotation Xrotation Yrotation
  JOINT pelvis_right_femur
  {
    OFFSET -10.78128 -3.44521 -0.5502486
    CHANNELS 3 Zrotation Xrotation Yrotation
    JOINT right_femur_tibia
    {
      OFFSET -0.8047443 -44.0398 -0.1307829
      CHANNELS 3 Zrotation Xrotation Yrotation
      JOINT right_tibia_foot
      {
        OFFSET 3.006224 -47.83518 -5
        CHANNELS 3 Zrotation Xrotation Yrotation
        End Site
        {
          OFFSET 0 -5 15
        }
      }
    }
  }
  JOINT pelvis_left_femur
  {
    OFFSET 10.78128 -3.44521 -0.5502486
    CHANNELS 3 Zrotation Xrotation Yrotation
    JOINT left_femur_tibia
    {
      OFFSET 0.8047443 -44.0398 -0.1307829
      CHANNELS 3 Zrotation Xrotation Yrotation
      JOINT left_tibia_foot
      {
        OFFSET -4.370144 -48.10324 -4.275266
        CHANNELS 3 Zrotation Xrotation Yrotation
        End Site
        {
          OFFSET 0 -5 15
        }
      }
    }
  }
  JOINT pelvis_spine1
  {
    OFFSET 0 6.468898 -3.129235
    CHANNELS 3 Zrotation Xrotation Yrotation
    JOINT spine1
    {
      OFFSET 0 23.15396 4.99043
      CHANNELS 3 Zrotation Xrotation Yrotation
      JOINT spine2
      {
        OFFSET 0 20.79997 -5.064912
        CHANNELS 3 Zrotation Xrotation Yrotation
        JOINT neck
        {
          OFFSET 0 14.38658 9.616178
          CHANNELS 3 Zrotation Xrotation Yrotation
          End Site
          {
            OFFSET 0 20 0
          }
        }
      }
      JOINT right_manubrium
      {
        OFFSET -5.722621 16.35077 3.967754
        CHANNELS 3 Zrotation Xrotation Yrotation
        JOINT right_clavicle
        {
          OFFSET -13.16364 1.694482 -4.693211
          CHANNELS 3 Zrotation Xrotation Yrotation
          JOINT right_humerus
          {
            OFFSET -28.5034 -0.3100689 -2.792744
            CHANNELS 3 Zrotation Xrotation Yrotation
            JOINT right_radius
            {
              OFFSET -25.15693 0.02248979 -1.271978
              CHANNELS 3 Zrotation Xrotation Yrotation
              End Site
              {
                OFFSET -15 0 0
              }
            }
          }
        }
      }
      JOINT left_manubrium
      {
        OFFSET 5.722621 16.35077 3.967754
        CHANNELS 3 Zrotation Xrotation Yrotation
        JOINT left_clavicle
        {
          OFFSET 13.16364 1.694482 -4.693211
          CHANNELS 3 Zrotation Xrotation Yrotation
          JOINT left_humerus
          {
            OFFSET 29.39168 -1.063119 -2.237045
            CHANNELS 3 Zrotation Xrotation Yrotation
            JOINT left_radius
            {
              OFFSET 24.59957 -0.9528479 0.9047498
              CHANNELS 3 Zrotation Xrotation Yrotation
              End Site
              {
                OFFSET 15 -0 -0
              }
            }
          }
        }
      }
    }
  }
}
MOTION
Frames: 11
Frame Time: 0.0416666666667
0 103.5113 0 0.4317617 -0.7634392 -0.179296 4.35348 -17.95001 9.971925 -0 38.97576 -0 -5.993527 -15.67561 -3.273417 -6.724968 10.56838 -23.62045 -0 5.901614 -0 9.133737 -16.39322 27.74463 -3.520345 -3.224557 4.479324 2.657887 9.687173 -7.737152 1.255831 22.04132 7.218632 3.568532 -24.83181 9.478972 6.912432 -19.89778 11.92005 85.20531 36.45809 -18.84139 -0 0 16.33112 -6.922426 7.8773 4.192148 5.577717 -19.46203 -1.910339 -94.61577 27.15804 22.81851 0 0 -14.94375 7.801594 17.06271 5.083811
0.2733574 104.1422 1.344872 0.4356984 -1.239261 -0.3397846 4.04948 -17.30193 9.538482 -0 39.92999 -0 -6.41187 -15.30275 -3.310548 -6.610016 10.81769 -23.40693 -0 6.045632 -0 8.796683 -16.12195 27.48825 -3.48553 -3.180644 4.229066 2.570014 9.728883 -7.72309 1.198593 22.2975 7.202323 3.520694 -24.5964 9.370298 6.697518 -19.78596 11.8669 85.52504 36.09468 -18.85297 -0 0 15.86911 -7.319885 7.659814 4.396762 5.404996 -19.53176 -2.144777 -94.24312 27.27241 22.29877 0 0 -14.81339 7.697496 17.12323 5.107521
0.5993684 104.5207 2.92667 0.3447245 0.190234 -0.4555433 4.908656 -20.88396 9.868333 -0 34.79174 -0 -5.265697 -15.27355 -3.142459 -6.810262 10.82575 -23.07921 -0 5.527066 -0 8.914055 -17.98078 27.07673 -3.489815 -2.984394 4.800857 2.805577 9.373897 -7.717694 1.446842 21.58988 7.219328 3.509873 -25.32799 9.809987 6.57879 -19.74732 11.73074 85.27053 35.96257 -19.23631 -0 0 16.40598 -6.559095 8.10495 3.882826 6.154009 -19.73328 -1.479983 -94.33572 26.85689 22.38394 0 0 -16.33661 8.337902 16.63642 4.639861
0.9257545 104.642 4.871364 0.2096701 1.145734 -0.431598 5.463365 -24.00289 9.539321 -0 30.51598 -0 -4.791143 -14.28837 -3.009983 -6.818211 11.38238 -22.31734 -0 5.37783 -0 8.167907 -19.77198 25.96749 -3.404584 -2.693377 4.976036 2.926045 9.002264 -7.723942 1.621027 21.18625 7.23125 3.455449 -25.8115 10.10556 6.10471 -19.45472 11.45244 85.58955 35.33097 -19.83644 -0 0 16.12943 -6.271474 8.235794 3.622796 6.715999 -20.10946 -1.069225 -93.91208 26.89384 21.72934 0 0 -18.04898 8.547564 16.22286 4.606858
1.228044 104.5472 7.294424 0.00853869 2.026122 -0.2342521 5.978883 -27.19883 8.875511 -0 26.2765 -0 -4.674528 -12.59516 -2.812347 -6.720951 12.24266 -21.2557 -0 5.647322 -0 7.043046 -21.45583 24.44623 -3.25098 -2.361403 4.947457 3.016771 8.654803 -7.766808 1.746304 20.84035 7.261883 3.443692 -26.19837 10.30152 5.556606 -18.98952 11.13226 86.12757 34.67924 -20.54929 -0 0 15.40211 -6.221572 8.2992 3.473112 7.27296 -20.62489 -0.7436465 -93.13133 26.80569 20.58324 0 0 -19.90617 8.888642 15.75062 4.339562
1.47684 104.292 10.30189 -0.2867829 2.720166 0.1533898 6.426005 -30.16751 7.907479 -0 22.38344 -0 -5.0021 -10.3363 -2.595893 -6.484952 13.4299 -19.91758 -0 6.60518 -0 5.461369 -22.79454 22.51287 -2.987108 -2.015075 4.668101 3.068586 8.350972 -7.85998 1.809935 20.60222 7.302217 3.461219 -26.42376 10.36997 4.943651 -18.34522 10.78058 86.90903 34.01149 -21.36858 -0 0 14.17773 -6.439029 8.302151 3.442436 7.747031 -21.24968 -0.5517171 -92.02386 26.65106 18.96395 0 0 -21.79985 9.247509 15.27284 3.950417
1.655113 103.9749 13.97028 -0.6961623 3.212115 0.7131943 6.872424 -32.59752 6.813318 -0 19.14389 -0 -5.737385 -7.766555 -2.349993 -6.115661 14.76204 -18.4046 -0 8.539359 -0 3.559443 -23.47352 20.32094 -2.57737 -1.700201 4.174841 3.087901 8.142809 -8.009232 1.797786 20.44588 7.358324 3.525263 -26.47237 10.29522 4.381862 -17.58481 10.45548 87.81135 33.48612 -22.20733 -0 0 12.62093 -6.887957 8.321933 3.516841 8.087887 -21.90224 -0.5041828 -90.7622 26.31701 17.11977 0 0 -23.48044 9.637554 14.78758 3.412547
1.76046 103.7295 18.34102 -1.22766 3.430995 1.387233 7.375134 -34.09442 5.766997 -0 16.89438 -0 -6.82065 -5.239298 -2.093391 -5.606777 16.00349 -16.79792 -0 11.79557 -0 1.457222 -23.175 18.01434 -1.977722 -1.446054 3.520739 3.073417 8.072656 -8.20424 1.701339 20.36974 7.430055 3.624801 -26.32346 10.07954 3.931972 -16.78329 10.20293 88.74098 33.14604 -22.97481 -0 0 10.91365 -7.554493 8.424247 3.690498 8.215255 -22.48781 -0.6319285 -89.53053 25.76339 15.32445 0 0 -24.67275 10.00949 14.29655 2.78906
1.810843 103.7165 23.39622 -1.852039 3.301162 2.071099 7.967792 -34.22845 4.965224 -0 15.91497 -0 -8.100597 -3.250893 -1.879694 -4.969851 16.78652 -15.20024 -0 16.68902 -0 -0.6582316 -21.6439 15.7902 -1.171026 -1.267334 2.824443 3.023405 8.171466 -8.409776 1.525562 20.37298 7.509937 3.727846 -25.98004 9.754758 3.63206 -16.05221 10.06756 89.57593 32.97198 -23.54864 -0 0 9.328611 -8.398202 8.672804 3.948773 8.046499 -22.88782 -0.952514 -88.55691 25.01088 13.94012 0 0 -25.07422 10.28683 13.80162 2.205349
1.842434 104.0947 29.03964 -2.476217 2.752648 2.621306 8.577619 -32.64485 4.522669 -0 16.23918 -0 -9.342841 -2.334992 -1.806155 -4.255567 16.6676 -13.70578 -0 23.41764 -0 -2.576579 -18.8303 13.8519 -0.210759 -1.148032 2.268378 2.933174 8.438595 -8.560116 1.300604 20.4705 7.569179 3.77918 -25.46465 9.377455 3.469298 -15.50782 10.07264 90.20038 32.85499 -23.7995 -0 0 8.146995 -9.348973 9.093023 4.264859 7.533116 -22.99682 -1.448493 -88.02719 24.16443 13.28367 0 0 -24.47534 10.3813 13.31478 1.826899
1.896581 104.9774 35.09057 -2.92695 1.757303 2.889351 8.98103 -29.20761 4.387292 -0 17.48815 -0 -10.29717 -2.839333 -1.960182 -3.581761 15.22956 -12.38792 -0 31.89387 -0 -4.097189 -15.04001 12.38192 0.7288777 -1.036997 2.066961 2.790951 8.831746 -8.564622 1.085986 20.6978 7.54879 3.72714 -24.80545 8.998333 3.39346 -15.22834 10.20476 90.53231 32.663 -23.62583 -0 0 7.550075 -10.30022 9.632247 4.600439 6.716609 -22.77296 -2.040229 -88.00996 23.39283 13.4803 0 0 -22.9017 10.2287 12.86793 1.793728
